<?xml version="1.0" encoding="utf-8"?>
<!-- Generator: Adobe Illustrator 23.0.5, SVG Export Plug-In . SVG Version: 6.00 Build 0)  -->
<svg version="1.1" id="Слой_1" xmlns="http://www.w3.org/2000/svg" xmlns:xlink="http://www.w3.org/1999/xlink" x="0px" y="0px"
	 viewBox="0 0 800.8 275" style="enable-background:new 0 0 800.8 275;" xml:space="preserve">
<style type="text/css">
	.st0{fill:none;stroke:#212728;stroke-width:6;stroke-linecap:round;stroke-linejoin:round;}
	.st1{fill:none;stroke:#283035;stroke-width:8;stroke-linecap:round;stroke-linejoin:round;}
	.st2{fill:#D2DCE6;}
	.st3{fill:none;stroke:#283035;stroke-width:6;stroke-linecap:round;stroke-linejoin:round;}
	.st4{fill:#FF5C5C;}
	.st5{opacity:0.3;fill:none;stroke:#FFFFFF;stroke-width:6;stroke-linecap:round;stroke-linejoin:round;enable-background:new    ;}
	.st6{opacity:0.3;}
	.st7{fill:#FFFFFF;}
	.st8{fill:#E5E5E5;}
	.st9{fill:#CFD1D0;}
	.st10{fill:#686B6D;}
	.st11{fill:none;stroke:#283035;stroke-width:4;stroke-linecap:round;stroke-linejoin:round;}
	.st12{fill:#EAD57D;}
	.st13{fill:#E5C66E;}
	.st14{fill:#5CBF84;}
	.st15{fill:#4FB277;}
	.st16{fill:#54AF79;}
	.st17{opacity:0.14;enable-background:new    ;}
	.st18{fill:#353F49;}
	.st19{fill:#EAEEEF;}
	.st20{opacity:0.35;fill:#283035;enable-background:new    ;}
	.st21{fill:none;stroke:#46BB86;stroke-width:3;stroke-miterlimit:10;}
	.st22{fill:none;stroke:#389ABE;stroke-width:3;stroke-miterlimit:10;}
	.st23{fill:none;stroke:#E5C689;stroke-width:3;stroke-miterlimit:10;}
	.st24{fill:none;stroke:#F2F3F4;stroke-width:3;stroke-miterlimit:10;}
	.st25{fill:none;stroke:#FFA49F;stroke-width:3;stroke-miterlimit:10;}
	.st26{fill:none;stroke:#212728;stroke-linecap:round;stroke-miterlimit:10;}
	.st27{fill:none;stroke:#283035;stroke-width:3;stroke-linecap:round;stroke-linejoin:round;}
	.st28{fill:#F7B66F;}
	.st29{fill:#EDA762;}
	.st30{fill:#8EAFBF;}
	.st31{fill:none;stroke:#8BAFC1;stroke-width:4;stroke-linecap:round;stroke-linejoin:round;}
	.st32{fill:#3BBC88;}
</style>
<title>111-coding</title>
<g>
	<path class="st0" d="M632.4,113.5"/>
	<path class="st0" d="M646.6,80.6"/>
	<polyline class="st1" points="70.8,128.9 78.6,91.6 119.8,82.3 	"/>
	<path class="st2" d="M199,3h337.8c9.5,0,17.1,7.7,17.1,17.1V243l0,0h-372l0,0V20.1C181.8,10.7,189.5,3,199,3z"/>
	<path class="st3" d="M199,3h337.8c9.5,0,17.1,7.7,17.1,17.1V243l0,0h-372l0,0V20.1C181.8,10.7,189.5,3,199,3z"/>
	<rect x="209.8" y="31.3" class="st4" width="316" height="184"/>
	<line class="st5" x1="393.3" y1="185.9" x2="445.3" y2="185.9"/>
	<g class="st6">
		<path class="st7" d="M520,128.7c2.1-0.1,3.9,1.2,4.5,3.1v-11.5c-1.1-0.3-2.2-0.5-3.4-0.5H520c-2.5,0-3.8,1.3-3.8,3.8v1.3
			C516.3,127.5,517.5,128.7,520,128.7z"/>
		<path class="st7" d="M524.6,183.6c-0.6,2-2.5,3.2-4.5,3.1c-2.5,0-3.8,1.3-3.8,3.8v1.3c0,2.5,1.3,3.8,3.8,3.8h1.2
			c1.1,0,2.3-0.2,3.4-0.5V183.6z"/>
	</g>
	<rect x="209.8" y="31.3" class="st3" width="316" height="184"/>
	<path class="st8" d="M140.8,243.1h454.1c2.2,0,4,1.8,4,4v4.8c0,11-9,20-20,20H156.8c-11,0-20-9-20-20v-4.8
		C136.8,244.9,138.6,243.1,140.8,243.1z"/>
	<path class="st9" d="M578.9,262.9H156.8c-9.9,0-18.3-7.3-19.8-17.1c-0.2,0.4-0.2,0.9-0.2,1.3v4.8c0,11,9,20,20,20h422.1
		c11,0,20-9,20-20v-4.8c0-0.4-0.1-0.9-0.2-1.3C597.2,255.7,588.8,262.9,578.9,262.9z"/>
	<path class="st3" d="M140.8,243.1h454.1c2.2,0,4,1.8,4,4v4.8c0,11-9,20-20,20H156.8c-11,0-20-9-20-20v-4.8
		C136.8,244.9,138.6,243.1,140.8,243.1z"/>
	<path class="st10" d="M325.8,243h84l0,0l0,0c0,4.4-3.6,8-8,8h-68C329.4,251,325.8,247.4,325.8,243L325.8,243L325.8,243z"/>
	<path class="st11" d="M325.8,243h84l0,0l0,0c0,4.4-3.6,8-8,8h-68C329.4,251,325.8,247.4,325.8,243L325.8,243L325.8,243z"/>
	<circle class="st10" cx="367.1" cy="16.8" r="8"/>
	<circle class="st11" cx="367.1" cy="16.8" r="8"/>
	<path class="st12" d="M41.7,271.9h49.1c3.5,0,6.5-2.6,6.9-6.1l13.1-102.9H21.6l13.1,102.9C35.2,269.3,38.2,271.9,41.7,271.9z"/>
	<path class="st13" d="M35.3,162.9l10.4,95c0.4,4,3.9,7.1,7.9,7.1h44.2l-0.1,0.8c-0.4,3.5-3.4,6.1-6.9,6.1H41.7
		c-3.5,0-6.5-2.6-6.9-6.1L21.6,162.9H35.3z"/>
	<path class="st3" d="M41.7,271.9h49.1c3.5,0,6.5-2.6,6.9-6.1l13.1-102.9H21.6l13.1,102.9C35.2,269.3,38.2,271.9,41.7,271.9z"/>
	<polygon class="st14" points="107.5,242.3 113.8,192.5 18.7,192.5 25,242.3 	"/>
	<polygon class="st15" points="107.5,242.3 113.8,192.5 18.7,192.5 25,242.3 	"/>
	<path class="st14" d="M107.1,236.6l5.3-44H32.6l4.9,40.5c0.2,2,1.9,3.5,3.9,3.5L107.1,236.6z"/>
	<polygon class="st3" points="107.5,242.3 113.8,192.5 18.7,192.5 25,242.3 	"/>
	<path class="st14" d="M116.6,162.9H15.9c-6.1,0-11-4.9-11-11l0,0c0-6.1,4.9-11,11-11h100.7c6.1,0,11,4.9,11,11l0,0
		C127.6,158,122.7,162.9,116.6,162.9z"/>
	<path class="st15" d="M116.6,162.9H15.9c-6.1,0-11-4.9-11-11l0,0c0-6.1,4.9-11,11-11h100.7c6.1,0,11,4.9,11,11l0,0
		C127.6,158,122.7,162.9,116.6,162.9z"/>
	<path class="st14" d="M119,158.2H27.3c-4.8,0-8.6-3.9-8.6-8.6l0,0c0-4.8,3.9-8.6,8.6-8.6H119c4.8,0,8.6,3.9,8.6,8.6l0,0
		C127.6,154.3,123.7,158.2,119,158.2z"/>
	<path class="st3" d="M116.6,162.9H15.9c-6.1,0-11-4.9-11-11l0,0c0-6.1,4.9-11,11-11h100.7c6.1,0,11,4.9,11,11l0,0
		C127.6,158,122.7,162.9,116.6,162.9z"/>
	<polygon class="st14" points="26.3,140.9 106.3,140.9 104.7,128.9 27.8,128.9 	"/>
	<polygon class="st16" points="27.8,128.9 51.3,128.9 45.8,140.9 26.3,140.9 	"/>
	<polygon class="st3" points="26.3,140.9 106.3,140.9 104.7,128.9 27.8,128.9 	"/>
	<path class="st0" d="M141.2,268.1"/>
	<path class="st8" d="M609.4,272c0.1-16,13.1-28.9,29.2-28.8c15.9,0.1,28.7,12.9,28.8,28.8H609.4z"/>
	<path class="st9" d="M638.4,262.9c8.4,0.1,16.4-3.5,22-9.7c-10.4-12.1-28.7-13.5-40.8-3.1c-1.1,1-2.2,2-3.1,3.1
		C622,259.4,630,263,638.4,262.9z"/>
	<path class="st3" d="M609.4,272c0.1-16,13.1-28.9,29.2-28.8c15.9,0.1,28.7,12.9,28.8,28.8H609.4z"/>
	<path class="st17" d="M263.3,66.9h152c4.4,0,8,3.6,8,8v118c0,4.4-3.6,8-8,8h-152c-4.4,0-8-3.6-8-8v-118
		C255.3,70.5,258.8,66.9,263.3,66.9z"/>
	<path class="st18" d="M255.4,59.9h152c4.4,0,8,3.6,8,8v118c0,4.4-3.6,8-8,8h-152c-4.4,0-8-3.6-8-8v-118
		C247.4,63.5,251,59.9,255.4,59.9z"/>
	<path class="st11" d="M255.4,59.9h152c4.4,0,8,3.6,8,8v118c0,4.4-3.6,8-8,8h-152c-4.4,0-8-3.6-8-8v-118
		C247.4,63.5,251,59.9,255.4,59.9z"/>
	<path class="st19" d="M255.4,59.9h152c4.4,0,8,3.6,8,8v12l0,0h-168l0,0v-12C247.4,63.5,251,59.9,255.4,59.9z"/>
	<path class="st11" d="M255.4,59.9h152c4.4,0,8,3.6,8,8v12l0,0h-168l0,0v-12C247.4,63.5,251,59.9,255.4,59.9z"/>
	<circle class="st20" cx="261.8" cy="69.9" r="3.1"/>
	<circle class="st20" cx="271.6" cy="69.9" r="3.1"/>
	<circle class="st20" cx="280.9" cy="69.9" r="3.1"/>
	<line class="st21" x1="255.3" y1="86.9" x2="266.3" y2="86.9"/>
	<line class="st21" x1="270.3" y1="86.9" x2="300.3" y2="86.9"/>
	<line class="st22" x1="255.3" y1="94.9" x2="300.3" y2="94.9"/>
	<line class="st23" x1="264.3" y1="102.9" x2="286.3" y2="102.9"/>
	<line class="st24" x1="290.3" y1="102.9" x2="314.3" y2="102.9"/>
	<line class="st24" x1="276.3" y1="110.9" x2="322.3" y2="110.9"/>
	<line class="st25" x1="276.3" y1="118.9" x2="310.3" y2="118.9"/>
	<line class="st24" x1="264.3" y1="126.9" x2="314.3" y2="126.9"/>
	<line class="st22" x1="255.3" y1="133.9" x2="282.3" y2="133.9"/>
	<g class="st6">
		<path class="st7" d="M487.9,172.7c0-4-1.5-6.7-4.6-8.4c-2.2-1.2-3.1-2.1-3.1-4.1v-3.5c0-2.4,1.1-3,3-4.2c3.1-1.3,4.7-4.2,4.7-8.5
			v-7.6c0-6.1,2.2-10.6,5.5-12.5c2.4-1.7,5.3-2.7,8.3-2.8h1.2c2.5,0,3.8,1.3,3.8,3.8v1.3c0,2.4-1.3,3.7-3.8,3.7
			c-3.5,0-5.2,2.5-5.2,7.6v9.4c0.2,4.7-2.4,9-6.6,11.1l-0.8,0.3v0.2c0.9,0.3,1.8,0.7,2.5,1.3c2.2,1.3,4.9,4.5,4.9,10v10.5
			c0,5,1.7,7.5,5.2,7.5c2.5,0,3.8,1.3,3.8,3.8v1.3c0,2.5-1.3,3.8-3.8,3.8h-1.2c-3-0.1-5.8-1.1-8.3-2.8c-3.2-1.9-5.5-6.5-5.5-12.5
			V172.7z"/>
	</g>
	<path class="st26" d="M49.9,217.2"/>
	<path class="st27" d="M37.2,220.8l2-1.9c15.6,12.7,38,12.7,53.7,0l2.5,2.4"/>
	<path class="st27" d="M59.9,210.7c0-2.4-1.9-4.3-4.3-4.3h0l0,0c-2.4,0-4.3,1.9-4.3,4.3l0,0v3.9"/>
	<path class="st27" d="M72.6,210.7c0-2.4,1.9-4.3,4.3-4.3h0l0,0c2.4,0,4.3,1.9,4.3,4.3l0,0v3.9"/>
	<path class="st8" d="M691.1,142h77.8c5,0,9.1,4.1,9.1,9.1v111.8c0,5-4.1,9.1-9.1,9.1h-77.8c-5,0-9.1-4.1-9.1-9.1V151.1
		C682,146.1,686.1,142,691.1,142z"/>
	<path class="st9" d="M768.9,142h-1.2c0.2,0.7,0.3,1.4,0.3,2.1v111.8c0,5-4.1,9.1-9.1,9.1h-76.6c1,4.1,4.6,7,8.8,7h77.8
		c5,0,9.1-4.1,9.1-9.1V151.1C778,146.1,773.9,142,768.9,142C768.9,142,768.9,142,768.9,142z"/>
	<path class="st3" d="M691.1,142h77.8c5,0,9.1,4.1,9.1,9.1v111.8c0,5-4.1,9.1-9.1,9.1h-77.8c-5,0-9.1-4.1-9.1-9.1V151.1
		C682,146.1,686.1,142,691.1,142z"/>
	<path class="st28" d="M746,134.5h-8v-3c0-4.4-3.6-8-8-8s-8,3.6-8,8v3h-8c-4.4,0-8,3.6-8,8s3.6,8,8,8h32c4.4,0,8-3.6,8-8
		S750.4,134.5,746,134.5z"/>
	<path class="st29" d="M749.7,135.4c1.2,4.2-1.3,8.6-5.6,9.8c-0.7,0.2-1.4,0.3-2.1,0.3h-32c-1.3,0-2.6-0.3-3.7-0.9
		c0.9,3.5,4.1,5.9,7.7,5.9h32c4.4,0,8-3.6,8-8C754,139.5,752.3,136.8,749.7,135.4z"/>
	<path class="st29" d="M734,126.5v3h3.7c-0.6-2.2-2-4-4-5.1C733.9,125.1,734,125.8,734,126.5z"/>
	<path class="st3" d="M746,134.5h-8v-3c0-4.4-3.6-8-8-8s-8,3.6-8,8v3h-8c-4.4,0-8,3.6-8,8s3.6,8,8,8h32c4.4,0,8-3.6,8-8
		S750.4,134.5,746,134.5z"/>
	<circle class="st30" cx="730" cy="171.2" r="8.3"/>
	<circle class="st3" cx="730" cy="171.2" r="8.3"/>
	<line class="st3" x1="698.2" y1="196.8" x2="718.2" y2="196.8"/>
	<line class="st3" x1="698.2" y1="224" x2="718.2" y2="224"/>
	<line class="st3" x1="698.2" y1="251.2" x2="718.2" y2="251.2"/>
	<polyline class="st31" points="731.4,195.8 736.6,202.7 752.2,191 	"/>
	<polyline class="st31" points="731.4,222.9 736.6,229.9 752.2,218.1 	"/>
	
		<rect x="782.4" y="198.1" transform="matrix(0.9905 -0.1378 0.1378 0.9905 -24.1943 110.7123)" class="st32" width="10" height="64"/>
	
		<rect x="782.4" y="198.1" transform="matrix(0.9905 -0.1378 0.1378 0.9905 -24.1943 110.7123)" class="st11" width="10" height="64"/>
	<polygon class="st8" points="796.7,261.1 786.8,262.4 793.1,271.7 	"/>
	<polygon class="st11" points="796.7,261.1 786.8,262.4 793.1,271.7 	"/>
	<rect x="779" y="188" transform="matrix(0.9904 -0.1381 0.1381 0.9904 -19.1538 109.804)" class="st8" width="6" height="10"/>
	<rect x="779" y="188" transform="matrix(0.9904 -0.1381 0.1381 0.9904 -19.1538 109.804)" class="st11" width="6" height="10"/>
	<path class="st11" d="M796.8,222.7c-1.1-1.8-1.9-3.9-2.3-6c-1.1-5.4,1.6-8.5,0.1-11.6c-0.6-1.2-0.9-2.9-5.3-3.6"/>
	<line class="st3" x1="122.6" y1="272" x2="797.8" y2="272"/>
	<line class="st3" x1="3" y1="272" x2="110.9" y2="272"/>
</g>
</svg>
